<?xml version="1.0" encoding="iso-8859-1"?>
<!DOCTYPE svg PUBLIC "-//W3C//DTD SVG 1.1//EN" "http://www.w3.org/Graphics/SVG/1.1/DTD/svg11.dtd">
<svg 
 version="1.1" xmlns="http://www.w3.org/2000/svg" xmlns:xlink="http://www.w3.org/1999/xlink" x="0px" y="0px" width="512px"
	 height="512px" viewBox="0 0 512 512" style="enable-background:new 0 0 512 512;" xml:space="preserve"
><g id="afcae5a789ccd549f9c6e2a2f817c42b"><g></g><path style="display: inline;" d="M469.02,153.246c-30.001-27.104-76.563,2.705-99.549,24.767
		c-3.935,3.775-8.898,2.656-11.877-0.356c-3.038-2.971-4.194-7.961-0.4-11.915c0-0.011,0.007-0.011,0.015-0.019
		c10.181-10.618,26.245-33.933,13.353-48.208c-7.262-8.039,4.616-19.999,11.922-11.926c4.35,4.82,6.921,10.111,8.225,15.605
		c19.88-34.518,30.083-75.671,2.601-106.088c-7.254-8.04,4.624-19.999,11.923-11.922c35.003,38.745,21.776,90.65-3.839,132.574
		c26.579-12.3,56.328-15.412,79.551,5.565C489.019,148.623,477.06,160.504,469.02,153.246z M349.116,190.761
		c9.248,9.24,12.997,20.488,8.373,25.104c-1.186,1.189-2.815,1.815-4.728,1.945l-12.457,12.455
		c-6.135,6.14-15.005,16.313-19.702,22.604c0,0,0,0-9.069,16.354c-9.966,17.968-19.506,44.599-30.766,65.753
		c-14.371,27.009-19.895,34.248-19.895,34.248c-5.269,6.898-14.597,17.568-20.732,23.707L139.11,493.958
		c-6.139,6.135-13.737,13.233-16.887,15.768c0,0,0,0-4.372,0.822c-5.039,0.952-5.039,0.952-5.039,0.952
		c-2.079-1.552-8.795-7.843-14.938-13.979L81.273,480.92c-6.139-6.139-16.179-16.183-22.318-22.325l-16.601-16.601
		c-6.143-6.136-12.434-12.856-13.982-14.931c0,0,0,0,0.952-5.046c0.826-4.364,0.826-4.364,0.826-4.364
		c2.534-3.153,9.625-10.752,15.764-16.891l33.403-33.403l59.715,59.719l55.798-55.803l-59.714-59.714l11.826-11.822
		c6.143-6.146,16.805-15.472,23.711-20.736c0,0,7.239-5.523,34.248-19.902c21.147-11.255,47.781-20.795,65.749-30.761
		c16.354-9.073,16.354-9.073,16.354-9.073c6.295-4.698,16.461-13.567,22.604-19.703l12.456-12.456
		c0.133-1.912,0.755-3.538,1.94-4.72C328.627,177.765,339.871,181.514,349.116,190.761z M349.428,207.811
		c-0.889-2.497-2.949-6.306-7.01-10.355c-4.055-4.057-7.855-6.117-10.353-7.013c0.889,2.497,2.952,6.302,7.006,10.358
		C343.13,204.854,346.931,206.918,349.428,207.811z M303.594,18.816c31.132-1.96,57.148,19.754,60.779,50.73
		c1.371,11.656,19.524,10.051,18.161-1.634c-4.809-40.953-39.419-69.843-80.574-67.25C290.215,1.403,291.883,19.55,303.594,18.816z
		 M387.528,188.527c-11.159,7.106,0.341,24.066,11.463,16.99c15.834-10.088,35.818-6.216,46.732,9.055
		c7.669,10.729,24.675-0.711,16.983-11.463C445.213,178.65,412.892,172.382,387.528,188.527z"></path></g></svg>